<svg xmlns="http://www.w3.org/2000/svg" viewBox="0 0 512 512">
  <defs>
    <linearGradient id="g" x1="0" y1="0" x2="1" y2="1">
      <stop offset="0" stop-color="#1769e0"/>
      <stop offset="1" stop-color="#00a8b5"/>
    </linearGradient>
  </defs>
  <rect width="512" height="512" rx="112" fill="url(#g)"/>
  <path d="M118 180c54-72 142-94 224-52l-31 48c-57-28-115-14-150 32l-43-28Zm58 58c36-43 95-53 143-24l-34 45c-23-14-51-9-68 11l-41-32Zm79 45c24 0 44 20 44 44s-20 44-44 44-44-20-44-44 20-44 44-44Z" fill="#fff"/>
</svg>
